<svg width="507" height="292" viewBox="0 0 507 292" fill="none" xmlns="http://www.w3.org/2000/svg">
    <mask id="pep6ox09qa" style="mask-type:luminance" maskUnits="userSpaceOnUse" x="0" y="0" width="507" height="292">
        <path d="M507 0H0v291.67h507V0z" fill="#fff"/>
    </mask>
    <g mask="url(#pep6ox09qa)" stroke="#000000" stroke-miterlimit="10">
        <path d="M-279.56 291.67 12.11 0M-263.46 291.67 28.21 0M-247.35 291.67 44.32 0M-231.25 291.67 60.42 0M-215.14 291.67 76.53 0M-199.04 291.67 92.63 0M-182.93 291.67 108.74 0M-166.83 291.67 124.84 0M-150.72 291.67 140.95 0M-134.62 291.67 157.05 0M-118.51 291.67 173.16 0M-102.41 291.67 189.26 0M-86.3 291.67 205.37 0M-70.2 291.67 221.47 0M-54.09 291.67 237.57 0M-37.99 291.67 253.68 0M-21.88 291.67 269.78 0M-5.78 291.67 285.89 0M10.33 291.67 301.99 0M26.43 291.67 318.1 0M42.54 291.67 334.2 0M58.64 291.67 350.31 0M74.75 291.67 366.41 0M90.85 291.67 382.52 0M106.96 291.67 398.62 0M123.06 291.67 414.73 0M139.17 291.67 430.83 0M155.27 291.67 446.94 0M171.38 291.67 463.04 0M187.48 291.67 479.15 0M203.59 291.67 495.25 0M219.69 291.67 511.36 0M235.8 291.67 527.46 0M251.9 291.67 543.57 0M268.01 291.67 559.67 0M284.11 291.67 575.78 0M300.22 291.67 591.88 0M316.32 291.67 607.99 0M332.43 291.67 624.09 0M348.53 291.67 640.2 0M364.64 291.67 656.3 0M380.74 291.67 672.41 0M396.85 291.67 688.51 0M412.95 291.67 704.62 0M429.06 291.67 720.72 0M445.16 291.67 736.83 0M461.27 291.67 752.93 0M477.37 291.67 769.04 0M493.48 291.67 785.14 0"/>
    </g>
</svg>
