<svg width="281" height="24" viewBox="0 0 281 24" fill="none" xmlns="http://www.w3.org/2000/svg">
    <g clip-path="url(#b6zj9anzua)">
        <path d="M18.102 11.867h3.206v9.15C18.97 22.994 15.73 24 12.456 24 5.276 24 0 18.939 0 12S5.277 0 12.525 0c3.706 0 6.847 1.24 8.983 3.621L19.438 5.7c-1.938-1.877-4.142-2.714-6.78-2.714-5.411 0-9.319 3.788-9.319 9.017 0 5.228 3.908 9.017 9.286 9.017 1.97 0 3.806-.436 5.477-1.508v-7.644zm9.386 1.742V.269h3.34v13.207c0 5.194 2.371 7.54 6.579 7.54 4.207 0 6.612-2.346 6.612-7.54V.268h3.24v13.34c0 6.805-3.708 10.392-9.886 10.392-6.179 0-9.886-3.587-9.886-10.391h.001zm66.2 10.123-5.044-7.207c-.468.033-.969.067-1.47.067h-5.778v7.14h-3.34V.268h9.118c6.08 0 9.753 3.085 9.753 8.18 0 3.62-1.87 6.235-5.144 7.408l5.544 7.877h-3.64v-.001zm-.102-15.284c0-3.353-2.237-5.262-6.513-5.262h-5.677v10.558h5.677c4.274 0 6.513-1.945 6.513-5.296zm8.751-8.18h9.853c7.514 0 12.624 4.76 12.624 11.732 0 6.972-5.11 11.732-12.624 11.732h-9.853V.268zm9.652 20.548c5.779 0 9.486-3.554 9.486-8.816 0-5.262-3.707-8.816-9.486-8.816h-6.313v17.632h6.313zM129.927.268h3.339v23.464h-3.339V.268zm13.994 14.918 5.043-11.497 5.043 11.497 1.169 2.68 2.572 5.867h3.508L150.634.268h-3.307l-10.588 23.464h3.44l2.572-5.867M184.838.268v23.464h-2.739L168.072 6.235v17.497h-3.339V.268h2.738l14.028 17.497V.268h3.339zM206.648 12c0-6.871 5.277-12 12.456-12 7.18 0 12.391 5.095 12.391 12s-5.277 12-12.391 12-12.458-5.129-12.458-12h.002zm21.508 0c0-5.196-3.874-9.017-9.052-9.017-5.178 0-9.117 3.82-9.117 9.017 0 5.196 3.874 9.017 9.117 9.017s9.052-3.82 9.052-9.017zM256.713.268v23.464h-2.739L239.946 6.235v17.497h-3.339V.268h2.739l14.027 17.497V.268h3.34zm23.983 20.548v2.916h-16.967V.268h16.499v2.916h-13.16v7.207h11.723v2.85h-11.723v7.575h13.628zM49.491 23.463 59.746 0h3.307L73.34 23.463h-3.607L61.317 4.19l-8.483 19.274H49.49z" fill="#E4E2E3"/>
    </g>
    <defs>
        <clipPath id="b6zj9anzua">
            <path fill="#fff" d="M0 0h280.696v24H0z"/>
        </clipPath>
    </defs>
</svg>
